<svg xmlns="http://www.w3.org/2000/svg" width="100" height="100"><g stroke="#999" stroke-width="4" stroke-linecap="round" stroke-linejoin="round"><path d="M40.782 14.095H22.815c-5.54 0-10 4.46-10 10v60c0 5.54 4.46 10 10 10h30c5.54 0 10-4.46 10-10V34.038h-14.04a6.355 6.355 0 0 1-3.118-.828c-.957-.534-1.816-1.307-2.539-2.264-.722-.956-1.307-2.096-1.71-3.363a13.622 13.622 0 0 1-.626-4.127z" fill="#fff"/><path d="M40.782 14.095v9.361c0 1.466.222 2.86.625 4.127.404 1.267.989 2.407 1.711 3.363.723.957 1.582 1.73 2.54 2.264.956.534 2.01.828 3.116.828h14.041v-2.252l-20.17-17.691z" fill="#999"/></g><g transform="translate(-10.762 -266.447)" fill="#999"><rect ry="1.66" rx="0" y="304.892" x="30.289" height="5.226" width="29.587"/><rect width="36.578" height="5.226" x="30.289" y="318.875" rx="0" ry="1.66"/><rect ry="1.66" rx="0" y="327.464" x="30.289" height="5.226" width="36.578"/><rect width="36.578" height="5.226" x="30.289" y="336.053" rx="0" ry="1.66"/></g><g stroke="#999" stroke-width="4" stroke-linecap="round" stroke-linejoin="round"><path d="M65.151 5.905H47.185c-5.54 0-10 4.46-10 10v60c0 5.54 4.46 10 10 10h30c5.54 0 10-4.46 10-10V25.85H73.144a6.355 6.355 0 0 1-3.118-.829c-.957-.534-1.816-1.307-2.539-2.263a11.245 11.245 0 0 1-1.71-3.364 13.622 13.622 0 0 1-.626-4.126z" fill="#fff"/><path d="M65.151 5.905v9.362c0 1.465.222 2.86.625 4.126.404 1.267.989 2.407 1.711 3.364.723.956 1.582 1.73 2.54 2.263.956.534 2.01.829 3.117.829h14.04v-2.252L67.015 5.905z" fill="#999"/></g><g transform="translate(13.607 -274.636)" fill="#999"><rect ry="1.66" rx="0" y="304.892" x="30.289" height="5.226" width="29.587"/><rect width="36.578" height="5.226" x="30.289" y="318.875" rx="0" ry="1.66"/><rect ry="1.66" rx="0" y="327.464" x="30.289" height="5.226" width="36.578"/><rect width="36.578" height="5.226" x="30.289" y="336.053" rx="0" ry="1.66"/></g></svg>