<svg xmlns="http://www.w3.org/2000/svg" viewBox="0 0 410.143 410.143"><path d="M320.86 228.27l-112.246-72.806a5.111 5.111 0 0 0-5.571 0L90.803 228.27a5.114 5.114 0 0 0-1.51 7.081 5.11 5.11 0 0 0 7.081 1.51l109.461-70.999 109.46 70.999c.86.558 1.823.824 2.78.824a5.114 5.114 0 0 0 4.301-2.335 5.12 5.12 0 0 0-1.516-7.08z"/><path d="M205.071 0C92.145 0 .271 91.996.271 205.071s91.873 205.071 204.8 205.071 204.8-91.996 204.8-205.071S317.998 0 205.071 0zm0 399.898c-107.279 0-194.56-87.398-194.56-194.831S97.792 10.24 205.071 10.24s194.56 87.398 194.56 194.831-87.28 194.827-194.56 194.827z"/></svg>